# AST/ASF file generated using VICON BodyLanguage
# -----------------------------------------------
:version 1.10
:name VICON
:units
  mass 1.0
  length 0.45
  angle deg
:documentation
   .ast/.asf automatically generated from VICON data using
   VICON BodyBuilder and BodyLanguage model FoxedUp or BRILLIANT.MOD
:root
   order TX TY TZ RX RY RZ
   axis XYZ
   position 0 0 0  
   orientation 0 0 0 
:bonedata
  begin
     id 1 
     name lhipjoint
     direction 0.54267 -0.795011 0.271047 
     length 2.39899 
     axis 0 0 0  XYZ
  end
  begin
     id 2 
     name lfemur
     direction 0.34202 -0.939693 0  
     length 7.49701  
     axis 0 0 20  XYZ
    dof rx ry rz
    limits (-160.0 20.0)
           (-70.0 70.0)
           (-60.0 70.0)
  end
  begin
     id 3 
     name ltibia
     direction 0.34202 -0.939693 0   
     length 8.1668   
     axis 0 0 20   XYZ
    dof rx
    limits (-10.0 170.0)
  end
  begin
     id 4 
     name lfoot
     direction 0.0736283 -0.202292 0.976554   
     length 2.13544   
     axis -90 7.62852e-016 20   XYZ
    dof rx rz
    limits (-45.0 90.0)
           (-70.0 20.0)
  end
  begin
     id 5 
     name ltoes
     direction 1.53557e-011 -4.22024e-011 1   
     length 1.07411   
     axis -90 7.62852e-016 20   XYZ
    dof rx
    limits (-90.0 20.0)
  end
  begin
     id 6 
     name rhipjoint
     direction -0.538061 -0.797813 0.272002   
     length 2.39057  
     axis 0 0 0  XYZ 
  end
  begin
     id 7 
     name rfemur
     direction -0.34202 -0.939693 0   
     length 7.50152   
     axis 0 0 -20   XYZ
    dof rx ry rz
    limits (-160.0 20.0)
           (-70.0 70.0)
           (-70.0 60.0)
  end
  begin
     id 8 
     name rtibia
     direction -0.34202 -0.939693 0   
     length 8.05793   
     axis 0 0 -20   XYZ
    dof rx
    limits (-10.0 170.0)
 end
 begin
     id 9 
     name rfoot
     direction -0.0765195 -0.210236 0.974652   
     length 2.28698  
     axis -90 -7.62852e-016 -20   XYZ
    dof rx rz
    limits (-45.0 90.0)
           (-20.0 70.0)
  end
  begin
     id 10 
     name rtoes
     direction -1.53542e-011 -4.21847e-011 1   
     length 1.14762   
     axis -90 -7.62852e-016 -20   XYZ
    dof rx
    limits (-90.0 20.0)
  end
  begin
     id 11 
     name lowerback
     direction -0.0217239 0.996592 -0.0795765   
     length 2.08176   
     axis 0 0 0   XYZ
    dof rx ry rz
    limits (-20.0 45.0)
           (-30.0 30.0)
           (-30.0 30.0)
  end
  begin
     id 12 
     name upperback
     direction -0.00563773 0.999651 -0.0258155   
     length 2.08898   
     axis 0 0 0   XYZ
    dof rx ry rz
    limits (-20.0 45.0)
           (-30.0 30.0)
           (-30.0 30.0)
  end
  begin
     id 13 
     name thorax
     direction 0.0032706 0.999923 0.0119599   
     length 2.0968   
     axis 0 0 0   XYZ
    dof rx ry rz
    limits (-20.0 45.0)
           (-30.0 30.0)
           (-30.0 30.0)
  end
  begin
     id 14 
     name lowerneck
     direction -0.0285886 0.99568 0.0883427   
     length 1.81272   
     axis 0 0 0   XYZ
    dof rx ry rz
    limits (-20.0 45.0)
           (-30.0 30.0)
           (-30.0 30.0)
  end
  begin
     id 15 
     name upperneck
     direction 0.0807535 0.97985 -0.18268   
     length 1.82518   
     axis 0 0 0   XYZ
    dof rx ry rz
    limits (-20.0 45.0)
           (-30.0 30.0)
           (-30.0 30.0)
  end
  begin
     id 16
     name head
     direction 0.0236605 0.997053 -0.0729767  
     length 1.84443  
     axis 0 0 0   XYZ
    dof rx ry rz
    limits (-20.0 45.0)
           (-30.0 30.0)
           (-30.0 30.0)
  end
  begin
     id 17 
     name lclavicle
     direction 0.918986 0.39378 -0.0200683  
     length 3.27822  
     axis 0 0 0   XYZ
    dof ry rz
    limits (-20.0 10.0)
           (0.0 20.0)
  end
  begin
     id 18 
     name lhumerus
     direction 1 -4.4897e-011 2.09544e-027   
     length 5.5568   
     axis 180 -30 -90   XYZ
    dof rx ry rz
    limits (-60.0 90.0)
           (-90.0 90.0)
           (-90.0 90.0)
  end
  begin
     id 19
     name lradius
     direction 1 -4.48957e-011 -1.27696e-026   
     length 3.63979   
     axis 180 -30 -90   XYZ
    dof rx
    limits (-10.0 170.0)
  end
  begin
     id 20
     name lwrist
     direction 1 -4.49001e-011 -1.49001e-026   
     length 1.8199   
     axis 9.0955e-015 90 90   XYZ
    dof ry
    limits (-180.0 0.0)
 end
  begin
     id 21 
     name lhand
     direction 1 -4.48709e-011 -2.9758e-026   
     length 0.569419   
     axis 1.90115e-014 90 90   XYZ
    dof rx rz
    limits (-90.0 90.0)
           (-45.0 45.0)
  end
  begin
     id 22 
     name lfingers
     direction 1 -4.49175e-011 -5.96505e-026   
     length 0.45908   
     axis 3.80223e-014 90 90   XYZ
    dof rx
    limits (0.0 90.0)
  end
  begin
     id 23
     name lthumb
     direction 0.707107 -6.34864e-011 0.707107   
     length 0.65915   
     axis -90 45 -3.84942e-014   XYZ
    dof rx rz
    limits (-45.0 45.0)
           (-45.0 45.0)
  end
  begin
     id 24 
     name rclavicle
     direction -0.911913 0.396426 -0.106115   
     length 3.46301  
     axis 0 0 0   XYZ 
    dof ry rz
    limits (-10.0 20.0)
           (-20.0 0.0)
  end
  begin
     id 25 
     name rhumerus
     direction -1 -4.48965e-011 7.78516e-028  
     length 5.34339   
     axis 180 30 90   XYZ
    dof rx ry rz
    limits (-90.0 60.0)
           (-90.0 90.0)
           (-90.0 90.0)
  end
  begin
     id 26 
     name rradius
     direction -1 -4.48948e-011 -5.79823e-027   
     length 3.65101   
     axis 180 30 90   XYZ
    dof rx
    limits (-10.0 170.0)
  end
  begin
     id 27 
     name rwrist
     direction -1 -4.48995e-011 -1.48996e-026   
     length 1.8255   
     axis 9.0955e-015 -90 -90   XYZ
    dof ry
    limits (-180.0 0.0)
  end
  begin
     id 28
     name rhand
     direction -1 -4.48957e-011 -2.97937e-026   
     length 0.694249   
     axis 1.90115e-014 -90 -90   XYZ
    dof rx rz
    limits (-90.0 90.0)
           (-45.0 45.0)
  end
  begin
     id 29
     name rfingers
     direction -1 -4.4898e-011 -5.95943e-026   
     length 0.559721   
     axis 3.80223e-014 -90 -90   XYZ
    dof rx
    limits (0.0 90.0)
  end
  begin
     id 30
     name rthumb
     direction -0.707107 -6.34969e-011 0.707107   
     length 0.803651   
     axis -90 -45 3.84942e-014   XYZ
    dof rx rz
    limits (-45.0 45.0)
           (-45.0 45.0)
  end
:hierarchy
  begin
    root lhipjoint rhipjoint lowerback
    lhipjoint lfemur
    lfemur ltibia
    ltibia lfoot
    lfoot ltoes
    rhipjoint rfemur
    rfemur rtibia
    rtibia rfoot
    rfoot rtoes
    lowerback upperback
    upperback thorax
    thorax lowerneck lclavicle rclavicle
    lowerneck upperneck
    upperneck head
    lclavicle lhumerus
    lhumerus lradius
    lradius lwrist
    lwrist lhand lthumb
    lhand lfingers
    rclavicle rhumerus
    rhumerus rradius
    rradius rwrist
    rwrist rhand rthumb
    rhand rfingers
  end

#!OML:ASF H:\Terrain\Walking\May29\JustinRory\rory.ASF
:FULLY-SPECIFIED
:DEGREES
64
root 12.2359 18.4051 -9.65071 -0.873471 3.53168 -0.812401
lowerback 2.22849 2.46058 2.1679
upperback 1.23417 3.32258 0.966736
thorax 0.0830519 1.66897 -0.290495
lowerneck -8.90946 -10.5776 -11.5553
upperneck 14.3163 -13.7102 6.4365
head 7.08957 -6.75812 2.58462
rclavicle -3.05631e-014 3.57812e-015
rhumerus -15.887 9.01031 -85.072
rradius 59.0993
rwrist -21.4324
rhand -18.4815 31.0058
rfingers 7.12502
rthumb 7.80561 1.16992
lclavicle -3.05631e-014 3.57812e-015
lhumerus -48.045 19.153 68.1739
lradius 47.6506
lwrist 175.031
lhand -23.689 -21.2236
lfingers 7.12502
lthumb 2.77771 8.73803
rfemur -2.57039 0.901915 25.7311
rtibia 19.9845
rfoot -11.7319 -12.8207
rtoes 10.0285
lfemur -23.0401 -11.3044 -13.5593
ltibia 17.9462
lfoot -6.30032 3.88873
ltoes -13.4878
65
root 12.2363 18.3942 -9.53783 -0.953555 2.98253 -1.1905
lowerback 2.40265 2.40189 2.34898
upperback 1.0724 3.25661 0.945735
thorax -0.170079 1.63328 -0.424364
lowerneck -8.6233 -10.4009 -11.1578
upperneck 14.5063 -13.5405 6.25556
head 7.04421 -6.67805 2.50249
rclavicle 6.28657e-015 8.54774e-015
rhumerus -17.1763 10.2052 -85.7769
rradius 60.5794
rwrist -21.6198
rhand -19.6655 31.0118
rfingers 7.12502
rthumb 6.66275 1.1366
lclavicle 6.28657e-015 8.54774e-015
lhumerus -49.3592 19.9645 66.5188
lradius 46.826
lwrist 174.156
lhand -23.6565 -21.2441
lfingers 7.12502
lthumb 2.80911 8.7172
rfemur -1.98497 0.565271 26.09
rtibia 19.6059
rfoot -12.2607 -12.0118
rtoes 11.2936
lfemur -22.8978 -11.2354 -13.0471
ltibia 17.3427
lfoot -6.57905 3.5711
ltoes -14.5419
66
root 12.2359 18.3829 -9.43639 -0.875458 2.37096 -1.87999
lowerback 2.6855 2.39732 2.95454
upperback 0.768482 3.28207 0.949035
thorax -0.60515 1.63922 -0.780238
lowerneck -8.3614 -10.2798 -10.8691
upperneck 14.7956 -13.4385 6.11328
head 7.05259 -6.63186 2.43643
rclavicle 1.52319e-014 2.18663e-015
rhumerus -18.7607 11.3997 -86.6553
rradius 62.3053
rwrist -22.2067
rhand -21.3775 30.9214
rfingers 7.12502
rthumb 5.00987 1.00067
lclavicle 1.52319e-014 2.18663e-015
lhumerus -50.4247 20.6202 64.9655
lradius 45.669
lwrist 173.335
lhand -23.2245 -20.5669
lfingers 7.12502
lthumb 3.22628 9.38843
rfemur -1.66806 0.937909 26.9454
rtibia 19.4724
rfoot -12.4489 -12.0241
rtoes 10.807
lfemur -22.8635 -10.8407 -12.2338
ltibia 16.726
lfoot -6.22263 3.10828
ltoes -17.5923
67
root 12.2439 18.3767 -9.32359 -0.79439 2.00932 -1.74596
lowerback 2.52425 2.40795 2.74574
upperback 0.786148 3.28385 0.882877
thorax -0.504704 1.64163 -0.723664
lowerneck -8.11953 -10.2709 -10.9627
upperneck 14.6006 -13.4232 6.08945
head 6.95171 -6.63763 2.4603
rclavicle 1.59276e-014 4.57205e-015
rhumerus -20.2983 12.5517 -87.078
rradius 64.6027
rwrist -22.8185
rhand -23.3063 30.58
rfingers 7.12502
rthumb 3.14728 0.623496
lclavicle 1.59276e-014 4.57205e-015
lhumerus -51.0456 21.1777 63.946
lradius 44.3978
lwrist 172.499
lhand -23.8987 -18.9352
lfingers 7.12502
lthumb 2.57517 11.029
rfemur -1.26526 1.06092 26.9011
rtibia 19.4245
rfoot -12.497 -12.3653
rtoes 8.7902
lfemur -22.7582 -10.6138 -12.4305
ltibia 16.272
lfoot -5.63326 2.48813
ltoes -18.7046
68
root 12.2562 18.3757 -9.19495 -0.801317 1.79221 -1.21898
lowerback 2.43887 2.39954 2.10619
upperback 0.784405 3.25406 0.807704
thorax -0.491146 1.62683 -0.440408
lowerneck -7.87012 -10.2838 -11.3424
upperneck 14.4956 -13.4237 6.17896
head 6.90888 -6.65718 2.5583
rclavicle -1.03741e-015 3.97569e-016
rhumerus -22.0492 13.6953 -87.3056
rradius 67.2229
rwrist -23.5011
rhand -24.8275 29.9373
rfingers 7.12502
rthumb 1.6782 -0.0358871
lclavicle -1.03741e-015 3.97569e-016
lhumerus -51.939 21.6263 63.0622
lradius 43.4332
lwrist 171.574
lhand -24.6221 -17.3236
lfingers 7.12502
lthumb 1.87655 12.6479
rfemur -0.713039 0.60838 26.278
rtibia 19.2937
rfoot -12.6604 -12.1361
rtoes 7.61468
lfemur -22.5779 -10.5263 -13.1559
ltibia 16.1102
lfoot -5.06026 1.80703
ltoes -18.6388
69
root 12.2639 18.3737 -9.07267 -0.837195 1.15361 -1.21529
lowerback 2.79043 2.50341 1.96786
upperback 0.539816 3.40293 0.778614
thorax -0.941364 1.69571 -0.421733
lowerneck -7.83429 -10.2876 -11.5546
upperneck 15.0343 -13.4421 6.22347
head 7.09735 -6.67545 2.59332
rclavicle 2.50531e-014 -4.96962e-015
rhumerus -23.9494 15.0414 -87.9127
rradius 69.6767
rwrist -24.2921
rhand -26.8104 29.6348
rfingers 7.12502
rthumb -0.236995 -0.344806
lclavicle 2.50531e-014 -4.96962e-015
lhumerus -53.0021 22.0976 61.9518
lradius 42.7084
lwrist 170.51
lhand -24.8156 -18.489
lfingers 7.12502
lthumb 1.68962 11.484
rfemur -0.198732 0.835876 26.2357
rtibia 19.2032
rfoot -12.9016 -11.8414
rtoes 6.16896
lfemur -22.2866 -10.0802 -13.2948
ltibia 16.0262
lfoot -4.21289 1.24543
ltoes -20.6842
70
root 12.2712 18.3586 -8.95882 -0.898713 0.510286 -1.70345
lowerback 2.82892 2.6311 2.39339
upperback 0.552721 3.58691 0.834701
thorax -0.923257 1.7867 -0.608071
lowerneck -8.15701 -10.3918 -11.7631
upperneck 15.6391 -13.5787 6.36194
head 7.38813 -6.73369 2.62382
rclavicle 4.05956e-015 -5.96354e-016
rhumerus -25.602 16.0461 -88.5961
rradius 72.2279
rwrist -24.7067
rhand -29.0354 29.8808
rfingers 7.12502
rthumb -2.38588 -0.0855577
lclavicle 4.05956e-015 -5.96354e-016
lhumerus -53.5234 22.6515 60.9434
lradius 41.868
lwrist 169.414
lhand -24.9092 -20.2247
lfingers 7.12502
lthumb 1.5993 9.74907
rfemur 0.370043 1.12589 26.772
rtibia 19.1248
rfoot -13.1063 -11.7218
rtoes 3.20922
lfemur -22.0149 -9.46532 -12.9014
ltibia 16.0924
lfoot -3.32949 0.557432
ltoes -21.8006
